<?xml version="1.0" encoding="UTF-8" standalone="no"?>
<!DOCTYPE svg PUBLIC "-//W3C//DTD SVG 20010904//EN"
              "http://www.w3.org/TR/2001/REC-SVG-20010904/DTD/svg10.dtd">

<svg xmlns="http://www.w3.org/2000/svg"
     width="215.919mm" height="60.4572mm"
     viewBox="0 0 1275 357">
  <path id="logo_1" fill="#E8131A" d="M 23.00,0.15
  C 23.00,0.15 76.00,0.15 76.00,0.15
    76.00,0.15 178.00,0.15 178.00,0.15
    186.63,0.01 194.24,1.24 200.86,7.33
    211.71,17.21 211.26,35.75 200.86,45.68
    194.35,51.82 187.51,52.99 179.00,53.00
    179.00,53.00 30.00,53.00 30.00,53.00
    21.44,52.99 13.50,51.37 7.33,44.82
    -5.37,31.34 -1.78,5.24 23.00,0.15 Z" />
  <path id="logly_l" fill="#FFFFFF" d="M 1018.00,0.52
  C 1040.87,-3.10 1060.96,9.50 1061.00,34.00
    1061.00,34.00 1061.00,226.00 1061.00,226.00
    1060.97,245.34 1047.66,259.91 1028.00,260.00
    1007.98,260.09 992.10,248.01 992.00,227.00
    992.00,227.00 992.00,59.00 992.00,59.00
    992.00,39.23 987.77,17.75 1007.00,5.11
    1010.58,2.75 1013.92,1.61 1018.00,0.52 Z" />
  <path id="logly_L" fill="#FFFFFF" d="M 429.00,193.00
  C 429.00,193.00 511.00,193.00 511.00,193.00
    547.30,193.17 556.85,242.92 525.00,258.21
    519.23,260.99 517.21,260.99 511.00,261.00
    511.00,261.00 394.00,261.00 394.00,261.00
    373.78,260.97 360.03,247.20 360.00,227.00
    360.00,227.00 360.00,36.00 360.00,36.00
    360.03,19.77 369.61,6.02 386.00,2.52
    389.04,1.87 392.86,1.97 396.00,2.00
    415.31,2.23 428.97,16.98 429.00,36.00
    429.00,36.00 429.00,193.00 429.00,193.00 Z" />
  <path id="logo_2" fill="#0063B1" d="M 23.00,68.11
  C 23.00,68.11 49.00,68.11 49.00,68.11
    49.00,68.11 95.00,68.11 95.00,68.11
    95.00,68.11 232.00,68.11 232.00,68.11
    247.60,68.07 260.87,76.12 261.91,93.00
    263.03,111.13 248.67,120.97 232.00,121.00
    232.00,121.00 30.00,121.00 30.00,121.00
    21.44,120.99 13.50,119.37 7.33,112.82
    -5.37,99.34 -1.78,73.24 23.00,68.11 Z" />
  <path id="logly_o" fill="#FFFFFF" fill-rule="evenodd" d="M 641.00,74.44
  C 668.45,70.92 697.20,78.60 718.00,97.17
    730.45,108.29 740.15,123.08 745.25,139.00
    749.52,152.30 749.06,160.47 749.00,174.00
    748.92,191.80 740.21,213.55 728.70,227.00
    720.14,237.00 710.63,244.94 699.00,251.11
    681.13,260.59 667.55,261.22 648.00,261.00
    641.64,260.92 635.13,259.52 629.00,257.85
    598.34,249.46 574.44,226.22 564.75,196.00
    560.53,182.87 560.98,175.31 561.00,162.00
    561.05,128.68 583.77,97.49 613.00,82.97
    621.94,78.52 631.25,76.23 641.00,74.44 Z
    M 649.00,140.33
  C 623.15,146.52 618.35,180.80 642.00,192.62
    645.60,194.42 649.01,195.06 653.00,195.25
    685.19,196.81 693.70,156.52 669.00,142.90
    662.78,139.48 655.88,139.56 649.00,140.33 Z" />
  <path id="logly_g" fill="#FFFFFF" fill-rule="evenodd" d="M 900.00,256.00
  C 886.96,261.71 874.83,261.16 861.00,261.00
    851.42,260.88 839.83,257.65 831.00,253.99
    770.76,229.00 753.93,148.40 800.00,102.00
    807.29,94.67 813.76,89.45 823.00,84.76
    842.58,74.80 853.56,73.75 875.00,74.00
    920.08,74.53 962.93,116.73 962.96,162.00
    962.96,162.00 962.96,178.00 962.96,178.00
    962.96,178.00 962.00,190.00 962.00,190.00
    962.00,190.00 962.00,227.00 962.00,227.00
    962.00,227.00 962.00,271.00 962.00,271.00
    961.96,298.78 945.76,326.15 923.00,341.48
    891.84,362.47 850.43,361.43 820.00,339.57
    808.89,331.59 796.18,319.56 796.17,305.00
    795.97,302.51 795.92,298.35 796.17,296.00
    798.28,284.84 807.96,274.91 819.00,272.52
    821.82,271.90 825.10,271.97 828.00,272.00
    835.35,272.09 841.15,273.92 846.99,278.53
    853.32,283.53 860.15,294.98 874.00,293.81
    877.81,293.49 881.70,292.01 885.00,290.12
    887.97,288.42 890.42,286.56 892.67,283.96
    895.46,280.74 897.35,277.07 898.56,273.00
    900.42,266.78 900.00,262.34 900.00,256.00 Z
    M 866.00,140.30
  C 855.86,142.20 846.87,147.10 842.53,157.00
    834.21,175.98 850.51,197.29 871.00,194.71
    875.84,194.10 879.90,192.96 884.00,190.24
    908.64,173.91 894.82,138.06 866.00,140.30 Z" />
  <path id="logly_y" fill="#FFFFFF" d="M 1183.00,150.00
  C 1185.53,141.04 1192.52,128.73 1196.74,120.00
    1206.57,99.69 1211.36,78.44 1238.00,76.32
    1240.75,76.10 1243.30,76.61 1246.00,77.08
    1266.98,80.79 1278.51,100.82 1273.24,121.00
    1271.67,127.03 1267.12,135.21 1264.25,141.00
    1264.25,141.00 1249.31,172.00 1249.31,172.00
    1249.31,172.00 1223.26,226.00 1223.26,226.00
    1223.26,226.00 1190.25,295.00 1190.25,295.00
    1190.25,295.00 1175.25,326.00 1175.25,326.00
    1169.63,337.24 1165.82,345.72 1153.00,350.30
    1130.25,358.43 1107.88,344.14 1105.47,320.00
    1104.39,309.29 1110.16,299.20 1114.75,290.00
    1114.75,290.00 1134.31,249.00 1134.31,249.00
    1134.31,249.00 1142.25,233.00 1142.25,233.00
    1143.51,230.43 1145.03,227.98 1144.39,225.00
    1144.39,225.00 1130.00,199.00 1130.00,199.00
    1130.00,199.00 1098.72,144.00 1098.72,144.00
    1092.54,133.13 1084.53,122.06 1085.04,109.00
    1085.63,93.82 1095.74,79.78 1111.00,76.52
    1114.13,75.85 1118.72,75.96 1122.00,76.00
    1128.62,76.08 1134.57,77.91 1140.00,81.79
    1148.55,87.89 1151.99,96.24 1157.00,105.00
    1157.00,105.00 1183.00,150.00 1183.00,150.00 Z" />
  <path id="logo_3" fill="#139E1F" d="M 23.00,136.15
  C 23.00,136.15 71.00,136.15 71.00,136.15
    71.00,136.15 161.00,136.15 161.00,136.15
    169.63,136.01 177.24,137.24 183.86,143.33
    194.71,153.21 194.26,171.75 183.86,181.68
    177.35,187.82 170.51,188.99 162.00,189.00
    162.00,189.00 30.00,189.00 30.00,189.00
    21.44,188.99 13.50,187.37 7.33,180.82
    -5.37,167.34 -1.78,141.24 23.00,136.15 Z" />
  <path id="logo_4" fill="#8E44AD" d="M 24.00,203.22
  C 24.00,203.22 86.00,203.22 86.00,203.22
    96.49,203.00 107.67,201.70 117.00,207.47
    131.19,216.25 132.82,237.27 120.82,248.68
    114.35,254.82 107.51,255.99 99.00,256.00
    99.00,256.00 29.00,256.00 29.00,256.00
    21.40,255.91 13.68,253.50 8.33,247.82
    -1.57,237.31 -1.14,218.95 10.09,209.53
    14.39,205.93 18.63,204.48 24.00,203.22 Z" />
  <path id="logo_plus" fill="#FFFFFF" d="M 247.00,227.00
  C 247.00,223.64 246.62,210.40 247.60,208.15
    248.99,204.95 253.15,204.37 255.40,206.60
    258.00,209.17 257.00,222.93 257.00,227.00
    260.97,227.00 273.85,226.02 276.40,228.60
    278.63,230.85 278.05,235.01 274.85,236.40
    272.62,237.37 260.26,237.00 257.00,237.00
    257.00,240.26 257.37,252.62 256.40,254.85
    255.01,258.05 250.85,258.63 248.60,256.40
    246.02,253.85 247.00,240.97 247.00,237.00
    243.64,237.00 230.40,237.38 228.15,236.40
    224.95,235.01 224.37,230.85 226.60,228.60
    229.17,226.00 242.93,227.00 247.00,227.00 Z" />
</svg>
